<?xml version="1.0" standalone="no"?>
<!DOCTYPE svg PUBLIC "-//W3C//DTD SVG 20010904//EN"
 "http://www.w3.org/TR/2001/REC-SVG-20010904/DTD/svg10.dtd">
<svg version="1.0" xmlns="http://www.w3.org/2000/svg"
 width="360.000000pt" height="360.000000pt" viewBox="0 0 360.000000 360.000000"
 preserveAspectRatio="xMidYMid meet">

<g transform="translate(0.000000,360.000000) scale(0.100000,-0.100000)"
fill="#000000" stroke="none">
<path d="M1395 2688 c-88 -22 -215 -61 -309 -96 l-99 -37 -45 -70 c-70 -108
-154 -278 -200 -405 -84 -232 -112 -396 -112 -677 l0 -192 36 -29 c93 -77 318
-194 497 -259 66 -24 69 -24 82 -6 33 44 114 186 110 193 -3 4 -45 27 -95 50
-49 24 -90 46 -90 49 0 4 8 11 19 18 15 9 36 5 111 -24 199 -74 357 -99 570
-90 157 7 265 30 415 86 89 34 110 38 126 28 10 -6 19 -15 19 -18 0 -3 -43
-26 -95 -50 -52 -24 -95 -47 -95 -51 0 -8 92 -162 114 -191 14 -18 17 -18 83
6 179 65 404 182 497 259 l36 29 0 192 c0 284 -29 456 -117 692 -49 132 -100
236 -180 367 -52 85 -54 87 -126 116 -115 48 -364 122 -410 122 -8 0 -25 -25
-39 -57 l-24 -56 -272 -1 -272 -1 -27 58 c-29 62 -33 64 -108 45z m117 -774
c54 -28 108 -127 108 -200 0 -52 -38 -141 -76 -178 -57 -55 -138 -70 -209 -37
-83 38 -127 115 -127 217 1 120 71 205 187 226 24 5 79 -9 117 -28z m771 4
c75 -37 127 -149 112 -240 -14 -84 -60 -148 -129 -179 -105 -48 -221 9 -266
128 -25 68 -25 99 1 168 26 71 75 120 137 139 53 16 90 12 145 -16z"/>
</g>
</svg>
