<?xml version="1.0" standalone="no"?>
<!DOCTYPE svg PUBLIC "-//W3C//DTD SVG 20010904//EN"
 "http://www.w3.org/TR/2001/REC-SVG-20010904/DTD/svg10.dtd">
<svg version="1.0" xmlns="http://www.w3.org/2000/svg"
 width="360.000000pt" height="360.000000pt" viewBox="0 0 360.000000 360.000000"
 preserveAspectRatio="xMidYMid meet">

<g transform="translate(0.000000,360.000000) scale(0.100000,-0.100000)"
fill="#000000" stroke="none">
<path d="M1170 2435 c-179 -42 -309 -130 -405 -274 -159 -241 -148 -532 29
-768 61 -81 132 -137 231 -183 107 -50 154 -60 284 -60 138 0 234 28 342 98
340 222 400 696 124 990 -160 172 -392 247 -605 197z"/>
<path d="M2265 2396 c-167 -73 -281 -403 -245 -712 26 -223 102 -394 207 -464
128 -84 257 -23 348 164 166 342 81 886 -157 1007 -43 22 -110 24 -153 5z"/>
<path d="M2811 2329 c-23 -25 -56 -142 -70 -252 -16 -117 -14 -469 4 -585 24
-162 56 -242 95 -242 64 0 110 228 110 550 0 261 -31 460 -81 523 -25 32 -32
33 -58 6z"/>
</g>
</svg>
