<?xml version="1.0" standalone="no"?>
<!DOCTYPE svg PUBLIC "-//W3C//DTD SVG 20010904//EN"
 "http://www.w3.org/TR/2001/REC-SVG-20010904/DTD/svg10.dtd">
<svg version="1.0" xmlns="http://www.w3.org/2000/svg"
 width="360.000000pt" height="360.000000pt" viewBox="0 0 360.000000 360.000000"
 preserveAspectRatio="xMidYMid meet">

<g transform="translate(0.000000,360.000000) scale(0.100000,-0.100000)"
fill="#000000" stroke="none">
<path d="M2125 2539 c-111 -36 -211 -132 -256 -246 -18 -45 -23 -80 -25 -158
l-1 -100 -44 3 c-270 19 -538 144 -750 349 l-99 96 -21 -49 c-15 -33 -23 -77
-27 -135 -7 -137 32 -241 125 -335 25 -25 43 -48 39 -51 -8 -8 -104 14 -140
32 -16 9 -31 13 -34 10 -3 -2 1 -33 8 -67 28 -144 111 -254 241 -317 43 -21
76 -41 72 -44 -3 -4 -42 -7 -85 -7 -43 0 -78 -3 -78 -6 0 -3 14 -33 32 -66 57
-108 167 -186 292 -209 36 -7 66 -16 66 -19 0 -11 -67 -53 -148 -94 -108 -54
-200 -77 -342 -85 l-125 -7 105 -51 c205 -101 337 -127 590 -120 144 4 192 9
271 30 333 87 594 296 762 607 88 162 147 387 147 555 l0 83 55 46 c56 49 151
154 144 160 -2 3 -42 -6 -88 -20 -129 -37 -134 -34 -64 39 55 57 111 143 100
153 -2 3 -35 -9 -73 -27 -38 -17 -95 -37 -128 -46 -57 -15 -58 -14 -85 10 -48
44 -92 69 -153 88 -80 25 -203 24 -283 -2z"/>
</g>
</svg>
